<svg xmlns="http://www.w3.org/2000/svg" width="1600" height="900" viewBox="0 0 1600 900">
  <defs>
    <linearGradient id="bg" x1="0%" y1="0%" x2="100%" y2="100%">
      <stop offset="0%" style="stop-color:#1a3a5f;stop-opacity:1" />
      <stop offset="100%" style="stop-color:#0f172a;stop-opacity:1" />
    </linearGradient>
    <!-- Market data pattern -->
    <pattern id="grid" width="50" height="50" patternUnits="userSpaceOnUse">
      <path d="M 50 0 L 0 0 0 50" fill="none" stroke="#ffffff" stroke-width="0.2" opacity="0.1"/>
    </pattern>
    <!-- Chart lines -->
    <path id="chart" d="M0,70 L100,65 L200,85 L300,75 L400,90 L500,40 L600,60 L700,30 L800,70" fill="none" stroke="#4ade80" stroke-width="2"/>
  </defs>
  
  <!-- Background -->
  <rect width="100%" height="100%" fill="url(#bg)"/>
  <rect width="100%" height="100%" fill="url(#grid)"/>
  
  <!-- Charts -->
  <g opacity="0.4">
    <use href="#chart" transform="translate(50, 300)" />
    <use href="#chart" transform="translate(200, 500)" />
    <use href="#chart" transform="translate(300, 200)" />
    <use href="#chart" transform="scale(0.8) translate(400, 600)" />
    <use href="#chart" transform="scale(1.2) translate(500, 400)" />
  </g>
  
  <!-- Data dots -->
  <g fill="#ffffff" opacity="0.5">
    <circle cx="200" cy="200" r="1" />
    <circle cx="400" cy="300" r="1" />
    <circle cx="600" cy="250" r="1" />
    <circle cx="800" cy="350" r="1" />
    <circle cx="1000" cy="200" r="1" />
    <circle cx="1200" cy="300" r="1" />
    <circle cx="1400" cy="250" r="1" />
    <circle cx="300" cy="500" r="1" />
    <circle cx="500" cy="600" r="1" />
    <circle cx="700" cy="550" r="1" />
    <circle cx="900" cy="650" r="1" />
    <circle cx="1100" cy="500" r="1" />
    <circle cx="1300" cy="600" r="1" />
    <circle cx="1500" cy="550" r="1" />
  </g>
</svg>
